<mxfile host="app.diagrams.net" agent="Mozilla/5.0 (Windows NT 10.0; Win64; x64) AppleWebKit/537.36 (KHTML, like Gecko) Chrome/136.0.0.0 Safari/537.36 Edg/136.0.0.0" version="27.0.9">
  <diagram name="Page-1" id="rv70FW1noNGGTZR8Txte">
    <mxGraphModel dx="4372" dy="1975" grid="1" gridSize="10" guides="1" tooltips="1" connect="1" arrows="1" fold="1" page="1" pageScale="1" pageWidth="827" pageHeight="1169" math="0" shadow="0">
      <root>
        <mxCell id="0" />
        <mxCell id="1" parent="0" />
        <mxCell id="NYa0R-SMuXHiYhOAjpid-2" value="«System»&lt;br&gt;&lt;b&gt;MyWaze&lt;/b&gt;" style="html=1;whiteSpace=wrap;" parent="1" vertex="1">
          <mxGeometry x="780" y="20" width="110" height="50" as="geometry" />
        </mxCell>
        <mxCell id="NYa0R-SMuXHiYhOAjpid-31" style="edgeStyle=orthogonalEdgeStyle;rounded=0;orthogonalLoop=1;jettySize=auto;html=1;exitX=0.5;exitY=0;exitDx=0;exitDy=0;entryX=0.5;entryY=1;entryDx=0;entryDy=0;endArrow=diamondThin;endFill=1;" parent="1" source="NYa0R-SMuXHiYhOAjpid-3" target="NYa0R-SMuXHiYhOAjpid-2" edge="1">
          <mxGeometry relative="1" as="geometry" />
        </mxCell>
        <mxCell id="NYa0R-SMuXHiYhOAjpid-3" value="«SubSystem»&lt;br&gt;&lt;b&gt;User Management&lt;/b&gt;" style="html=1;whiteSpace=wrap;" parent="1" vertex="1">
          <mxGeometry x="-517" y="250" width="110" height="50" as="geometry" />
        </mxCell>
        <mxCell id="8JqxV0b_A7vU7f-LkTIg-5" style="edgeStyle=orthogonalEdgeStyle;rounded=0;orthogonalLoop=1;jettySize=auto;html=1;exitX=0.5;exitY=0;exitDx=0;exitDy=0;entryX=0.5;entryY=1;entryDx=0;entryDy=0;endArrow=diamondThin;endFill=1;" parent="1" source="NYa0R-SMuXHiYhOAjpid-10" target="8JqxV0b_A7vU7f-LkTIg-3" edge="1">
          <mxGeometry relative="1" as="geometry" />
        </mxCell>
        <mxCell id="NYa0R-SMuXHiYhOAjpid-10" value="«interface»&lt;br&gt;&lt;b&gt;Register Account&lt;/b&gt;" style="html=1;whiteSpace=wrap;" parent="1" vertex="1">
          <mxGeometry x="-618.5" y="560" width="110" height="50" as="geometry" />
        </mxCell>
        <mxCell id="8JqxV0b_A7vU7f-LkTIg-6" style="edgeStyle=orthogonalEdgeStyle;rounded=0;orthogonalLoop=1;jettySize=auto;html=1;exitX=0.5;exitY=0;exitDx=0;exitDy=0;entryX=0.5;entryY=1;entryDx=0;entryDy=0;endArrow=diamondThin;endFill=1;" parent="1" source="NYa0R-SMuXHiYhOAjpid-11" target="8JqxV0b_A7vU7f-LkTIg-3" edge="1">
          <mxGeometry relative="1" as="geometry" />
        </mxCell>
        <mxCell id="NYa0R-SMuXHiYhOAjpid-11" value="«interface»&lt;br&gt;&lt;b&gt;Register Vehicle&lt;/b&gt;" style="html=1;whiteSpace=wrap;" parent="1" vertex="1">
          <mxGeometry x="-415.5" y="560" width="110" height="50" as="geometry" />
        </mxCell>
        <mxCell id="NYa0R-SMuXHiYhOAjpid-60" style="edgeStyle=orthogonalEdgeStyle;rounded=0;orthogonalLoop=1;jettySize=auto;html=1;exitX=0.25;exitY=0;exitDx=0;exitDy=0;entryX=0.5;entryY=1;entryDx=0;entryDy=0;endArrow=diamondThin;endFill=1;" parent="1" source="NYa0R-SMuXHiYhOAjpid-13" target="NYa0R-SMuXHiYhOAjpid-3" edge="1">
          <mxGeometry relative="1" as="geometry" />
        </mxCell>
        <mxCell id="NYa0R-SMuXHiYhOAjpid-61" style="edgeStyle=orthogonalEdgeStyle;rounded=0;orthogonalLoop=1;jettySize=auto;html=1;exitX=0.75;exitY=0;exitDx=0;exitDy=0;entryX=0.5;entryY=1;entryDx=0;entryDy=0;endArrow=diamondThin;endFill=1;" parent="1" source="NYa0R-SMuXHiYhOAjpid-13" target="NYa0R-SMuXHiYhOAjpid-24" edge="1">
          <mxGeometry relative="1" as="geometry" />
        </mxCell>
        <mxCell id="ZADUOhebhtJnV6KTccMP-1" style="edgeStyle=orthogonalEdgeStyle;rounded=0;orthogonalLoop=1;jettySize=auto;html=1;exitX=0.5;exitY=0;exitDx=0;exitDy=0;entryX=0.5;entryY=1;entryDx=0;entryDy=0;endArrow=diamondThin;endFill=1;" parent="1" source="NYa0R-SMuXHiYhOAjpid-13" target="NYa0R-SMuXHiYhOAjpid-16" edge="1">
          <mxGeometry relative="1" as="geometry">
            <Array as="points">
              <mxPoint x="-135" y="330" />
              <mxPoint x="536" y="330" />
            </Array>
          </mxGeometry>
        </mxCell>
        <mxCell id="NYa0R-SMuXHiYhOAjpid-13" value="«database»&lt;br&gt;&lt;b&gt;MyWazeData&lt;/b&gt;" style="html=1;whiteSpace=wrap;" parent="1" vertex="1">
          <mxGeometry x="-190" y="390" width="110" height="50" as="geometry" />
        </mxCell>
        <mxCell id="8JqxV0b_A7vU7f-LkTIg-12" style="edgeStyle=orthogonalEdgeStyle;rounded=0;orthogonalLoop=1;jettySize=auto;html=1;exitX=0.5;exitY=0;exitDx=0;exitDy=0;entryX=0.5;entryY=1;entryDx=0;entryDy=0;endArrow=diamondThin;endFill=1;" parent="1" source="NYa0R-SMuXHiYhOAjpid-14" target="8JqxV0b_A7vU7f-LkTIg-9" edge="1">
          <mxGeometry relative="1" as="geometry" />
        </mxCell>
        <mxCell id="NYa0R-SMuXHiYhOAjpid-14" value="«interface»&lt;br&gt;&lt;b&gt;SpeedAlert&lt;/b&gt;" style="html=1;whiteSpace=wrap;" parent="1" vertex="1">
          <mxGeometry x="360" y="530" width="110" height="50" as="geometry" />
        </mxCell>
        <mxCell id="8JqxV0b_A7vU7f-LkTIg-13" style="edgeStyle=orthogonalEdgeStyle;rounded=0;orthogonalLoop=1;jettySize=auto;html=1;exitX=0.5;exitY=0;exitDx=0;exitDy=0;entryX=0.5;entryY=1;entryDx=0;entryDy=0;endArrow=diamondThin;endFill=1;" parent="1" source="NYa0R-SMuXHiYhOAjpid-15" target="8JqxV0b_A7vU7f-LkTIg-9" edge="1">
          <mxGeometry relative="1" as="geometry" />
        </mxCell>
        <mxCell id="NYa0R-SMuXHiYhOAjpid-15" value="«interface»&lt;br&gt;&lt;b&gt;userReport&lt;/b&gt;" style="html=1;whiteSpace=wrap;" parent="1" vertex="1">
          <mxGeometry x="500" y="530" width="110" height="50" as="geometry" />
        </mxCell>
        <mxCell id="NYa0R-SMuXHiYhOAjpid-32" style="edgeStyle=orthogonalEdgeStyle;rounded=0;orthogonalLoop=1;jettySize=auto;html=1;exitX=0.5;exitY=0;exitDx=0;exitDy=0;entryX=0.5;entryY=1;entryDx=0;entryDy=0;endArrow=diamondThin;endFill=1;" parent="1" source="NYa0R-SMuXHiYhOAjpid-16" target="NYa0R-SMuXHiYhOAjpid-2" edge="1">
          <mxGeometry relative="1" as="geometry" />
        </mxCell>
        <mxCell id="NYa0R-SMuXHiYhOAjpid-16" value="«subSystem»&lt;br&gt;&lt;b&gt;Traffic Monotoring &amp;amp; Alerts&lt;/b&gt;" style="html=1;whiteSpace=wrap;" parent="1" vertex="1">
          <mxGeometry x="481" y="250" width="110" height="50" as="geometry" />
        </mxCell>
        <mxCell id="NYa0R-SMuXHiYhOAjpid-55" style="edgeStyle=orthogonalEdgeStyle;rounded=0;orthogonalLoop=1;jettySize=auto;html=1;exitX=0.25;exitY=0;exitDx=0;exitDy=0;entryX=0.5;entryY=1;entryDx=0;entryDy=0;endArrow=diamondThin;endFill=1;" parent="1" source="NYa0R-SMuXHiYhOAjpid-17" target="NYa0R-SMuXHiYhOAjpid-16" edge="1">
          <mxGeometry relative="1" as="geometry" />
        </mxCell>
        <mxCell id="NYa0R-SMuXHiYhOAjpid-88" style="edgeStyle=orthogonalEdgeStyle;rounded=0;orthogonalLoop=1;jettySize=auto;html=1;exitX=0.75;exitY=0;exitDx=0;exitDy=0;entryX=0.5;entryY=1;entryDx=0;entryDy=0;endArrow=diamondThin;endFill=1;" parent="1" source="NYa0R-SMuXHiYhOAjpid-17" target="NYa0R-SMuXHiYhOAjpid-18" edge="1">
          <mxGeometry relative="1" as="geometry" />
        </mxCell>
        <mxCell id="NYa0R-SMuXHiYhOAjpid-17" value="«database»&lt;br&gt;&lt;span&gt;TrafficData&lt;/span&gt;" style="html=1;whiteSpace=wrap;fontStyle=1" parent="1" vertex="1">
          <mxGeometry x="861" y="390" width="110" height="50" as="geometry" />
        </mxCell>
        <mxCell id="NYa0R-SMuXHiYhOAjpid-33" style="edgeStyle=orthogonalEdgeStyle;rounded=0;orthogonalLoop=1;jettySize=auto;html=1;exitX=0.5;exitY=0;exitDx=0;exitDy=0;entryX=0.5;entryY=1;entryDx=0;entryDy=0;endArrow=diamondThin;endFill=1;" parent="1" source="NYa0R-SMuXHiYhOAjpid-18" target="NYa0R-SMuXHiYhOAjpid-2" edge="1">
          <mxGeometry relative="1" as="geometry" />
        </mxCell>
        <mxCell id="NYa0R-SMuXHiYhOAjpid-18" value="«subsystem»&lt;br&gt;&lt;b&gt;Navigation&lt;/b&gt;" style="html=1;whiteSpace=wrap;" parent="1" vertex="1">
          <mxGeometry x="1171" y="250" width="110" height="50" as="geometry" />
        </mxCell>
        <mxCell id="8JqxV0b_A7vU7f-LkTIg-16" style="edgeStyle=orthogonalEdgeStyle;rounded=0;orthogonalLoop=1;jettySize=auto;html=1;exitX=0.5;exitY=0;exitDx=0;exitDy=0;entryX=0.5;entryY=1;entryDx=0;entryDy=0;endArrow=diamondThin;endFill=1;" parent="1" source="NYa0R-SMuXHiYhOAjpid-19" target="8JqxV0b_A7vU7f-LkTIg-14" edge="1">
          <mxGeometry relative="1" as="geometry" />
        </mxCell>
        <mxCell id="NYa0R-SMuXHiYhOAjpid-19" value="«interface»&lt;br&gt;&lt;b&gt;Define Route&lt;/b&gt;" style="html=1;whiteSpace=wrap;" parent="1" vertex="1">
          <mxGeometry x="1220" y="510" width="110" height="50" as="geometry" />
        </mxCell>
        <mxCell id="NYa0R-SMuXHiYhOAjpid-41" style="edgeStyle=orthogonalEdgeStyle;rounded=0;orthogonalLoop=1;jettySize=auto;html=1;exitX=0.5;exitY=0;exitDx=0;exitDy=0;entryX=0.5;entryY=1;entryDx=0;entryDy=0;endArrow=diamondThin;endFill=1;" parent="1" source="NYa0R-SMuXHiYhOAjpid-21" target="NYa0R-SMuXHiYhOAjpid-19" edge="1">
          <mxGeometry relative="1" as="geometry" />
        </mxCell>
        <mxCell id="NYa0R-SMuXHiYhOAjpid-21" value="«interface»&lt;br&gt;&lt;b&gt;Multi-Stop Route&lt;/b&gt;" style="html=1;whiteSpace=wrap;" parent="1" vertex="1">
          <mxGeometry x="991" y="770" width="110" height="50" as="geometry" />
        </mxCell>
        <mxCell id="NYa0R-SMuXHiYhOAjpid-44" style="edgeStyle=orthogonalEdgeStyle;rounded=0;orthogonalLoop=1;jettySize=auto;html=1;exitX=0.5;exitY=0;exitDx=0;exitDy=0;entryX=0.5;entryY=1;entryDx=0;entryDy=0;endArrow=diamondThin;endFill=1;" parent="1" source="NYa0R-SMuXHiYhOAjpid-22" target="NYa0R-SMuXHiYhOAjpid-19" edge="1">
          <mxGeometry relative="1" as="geometry" />
        </mxCell>
        <mxCell id="NYa0R-SMuXHiYhOAjpid-22" value="«interface»&lt;br&gt;&lt;b&gt;ETA&lt;/b&gt;" style="html=1;whiteSpace=wrap;" parent="1" vertex="1">
          <mxGeometry x="1171" y="770" width="110" height="50" as="geometry" />
        </mxCell>
        <mxCell id="NYa0R-SMuXHiYhOAjpid-45" style="edgeStyle=orthogonalEdgeStyle;rounded=0;orthogonalLoop=1;jettySize=auto;html=1;exitX=0.5;exitY=0;exitDx=0;exitDy=0;entryX=0.5;entryY=1;entryDx=0;entryDy=0;endArrow=diamondThin;endFill=1;" parent="1" source="NYa0R-SMuXHiYhOAjpid-23" target="NYa0R-SMuXHiYhOAjpid-19" edge="1">
          <mxGeometry relative="1" as="geometry" />
        </mxCell>
        <mxCell id="NYa0R-SMuXHiYhOAjpid-23" value="«interface»&lt;br&gt;&lt;b&gt;Voice Guided Notification&lt;/b&gt;" style="html=1;whiteSpace=wrap;" parent="1" vertex="1">
          <mxGeometry x="1351" y="770" width="110" height="50" as="geometry" />
        </mxCell>
        <mxCell id="NYa0R-SMuXHiYhOAjpid-34" style="edgeStyle=orthogonalEdgeStyle;rounded=0;orthogonalLoop=1;jettySize=auto;html=1;exitX=0.5;exitY=0;exitDx=0;exitDy=0;entryX=0.5;entryY=1;entryDx=0;entryDy=0;endArrow=diamondThin;endFill=1;" parent="1" source="NYa0R-SMuXHiYhOAjpid-24" target="NYa0R-SMuXHiYhOAjpid-2" edge="1">
          <mxGeometry relative="1" as="geometry" />
        </mxCell>
        <mxCell id="NYa0R-SMuXHiYhOAjpid-24" value="&lt;div&gt;&amp;lt;&amp;lt;subsystem&amp;gt;&amp;gt;&lt;/div&gt;Points of Interest (POI)" style="html=1;whiteSpace=wrap;" parent="1" vertex="1">
          <mxGeometry x="120" y="250" width="110" height="50" as="geometry" />
        </mxCell>
        <mxCell id="NYa0R-SMuXHiYhOAjpid-39" style="edgeStyle=orthogonalEdgeStyle;rounded=0;orthogonalLoop=1;jettySize=auto;html=1;exitX=0.5;exitY=0;exitDx=0;exitDy=0;entryX=0.5;entryY=1;entryDx=0;entryDy=0;endArrow=diamondThin;endFill=1;" parent="1" source="NYa0R-SMuXHiYhOAjpid-25" target="NYa0R-SMuXHiYhOAjpid-24" edge="1">
          <mxGeometry relative="1" as="geometry" />
        </mxCell>
        <mxCell id="NYa0R-SMuXHiYhOAjpid-25" value="«interface»&lt;br&gt;&lt;b&gt;Int POI&lt;/b&gt;" style="html=1;whiteSpace=wrap;" parent="1" vertex="1">
          <mxGeometry x="120" y="390" width="110" height="50" as="geometry" />
        </mxCell>
        <mxCell id="NYa0R-SMuXHiYhOAjpid-35" style="edgeStyle=orthogonalEdgeStyle;rounded=0;orthogonalLoop=1;jettySize=auto;html=1;exitX=0.5;exitY=0;exitDx=0;exitDy=0;entryX=0.5;entryY=1;entryDx=0;entryDy=0;endArrow=diamondThin;endFill=1;" parent="1" source="NYa0R-SMuXHiYhOAjpid-26" target="NYa0R-SMuXHiYhOAjpid-2" edge="1">
          <mxGeometry relative="1" as="geometry" />
        </mxCell>
        <mxCell id="NYa0R-SMuXHiYhOAjpid-26" value="&lt;div&gt;&amp;lt;&amp;lt;subSystem&amp;gt;&amp;gt;&lt;/div&gt;Third-Party Integration" style="html=1;whiteSpace=wrap;" parent="1" vertex="1">
          <mxGeometry x="1811" y="250" width="110" height="50" as="geometry" />
        </mxCell>
        <mxCell id="8JqxV0b_A7vU7f-LkTIg-19" style="edgeStyle=orthogonalEdgeStyle;rounded=0;orthogonalLoop=1;jettySize=auto;html=1;exitX=0.5;exitY=0;exitDx=0;exitDy=0;entryX=0.5;entryY=1;entryDx=0;entryDy=0;endArrow=diamondThin;endFill=1;" parent="1" source="NYa0R-SMuXHiYhOAjpid-28" target="8JqxV0b_A7vU7f-LkTIg-17" edge="1">
          <mxGeometry relative="1" as="geometry" />
        </mxCell>
        <mxCell id="NYa0R-SMuXHiYhOAjpid-28" value="«interface»&lt;br&gt;Spotify" style="html=1;whiteSpace=wrap;" parent="1" vertex="1">
          <mxGeometry x="1690" y="510" width="110" height="50" as="geometry" />
        </mxCell>
        <mxCell id="8JqxV0b_A7vU7f-LkTIg-20" style="edgeStyle=orthogonalEdgeStyle;rounded=0;orthogonalLoop=1;jettySize=auto;html=1;exitX=0.5;exitY=0;exitDx=0;exitDy=0;endArrow=diamondThin;endFill=1;" parent="1" source="NYa0R-SMuXHiYhOAjpid-29" target="8JqxV0b_A7vU7f-LkTIg-17" edge="1">
          <mxGeometry relative="1" as="geometry" />
        </mxCell>
        <mxCell id="NYa0R-SMuXHiYhOAjpid-29" value="«interface»&lt;br&gt;Youtube" style="html=1;whiteSpace=wrap;" parent="1" vertex="1">
          <mxGeometry x="1906" y="510" width="110" height="50" as="geometry" />
        </mxCell>
        <mxCell id="8JqxV0b_A7vU7f-LkTIg-21" style="edgeStyle=orthogonalEdgeStyle;rounded=0;orthogonalLoop=1;jettySize=auto;html=1;exitX=0.5;exitY=0;exitDx=0;exitDy=0;entryX=0.5;entryY=1;entryDx=0;entryDy=0;endArrow=diamondThin;endFill=1;" parent="1" source="NYa0R-SMuXHiYhOAjpid-30" target="8JqxV0b_A7vU7f-LkTIg-17" edge="1">
          <mxGeometry relative="1" as="geometry" />
        </mxCell>
        <mxCell id="NYa0R-SMuXHiYhOAjpid-30" value="«interface»&lt;br&gt;Amazon Music" style="html=1;whiteSpace=wrap;" parent="1" vertex="1">
          <mxGeometry x="2126" y="510" width="110" height="50" as="geometry" />
        </mxCell>
        <mxCell id="NYa0R-SMuXHiYhOAjpid-63" style="edgeStyle=orthogonalEdgeStyle;rounded=0;orthogonalLoop=1;jettySize=auto;html=1;exitX=0.5;exitY=0;exitDx=0;exitDy=0;entryX=0.5;entryY=1;entryDx=0;entryDy=0;endArrow=diamondThin;endFill=1;" parent="1" source="NYa0R-SMuXHiYhOAjpid-62" target="NYa0R-SMuXHiYhOAjpid-18" edge="1">
          <mxGeometry relative="1" as="geometry" />
        </mxCell>
        <mxCell id="NYa0R-SMuXHiYhOAjpid-62" value="«database»&lt;br&gt;&lt;b&gt;MapData&lt;/b&gt;" style="html=1;whiteSpace=wrap;" parent="1" vertex="1">
          <mxGeometry x="1431" y="390" width="110" height="50" as="geometry" />
        </mxCell>
        <mxCell id="NYa0R-SMuXHiYhOAjpid-69" style="edgeStyle=orthogonalEdgeStyle;rounded=0;orthogonalLoop=1;jettySize=auto;html=1;exitX=0.5;exitY=0;exitDx=0;exitDy=0;entryX=0.5;entryY=1;entryDx=0;entryDy=0;endArrow=diamondThin;endFill=1;" parent="1" source="NYa0R-SMuXHiYhOAjpid-65" target="NYa0R-SMuXHiYhOAjpid-13" edge="1">
          <mxGeometry relative="1" as="geometry" />
        </mxCell>
        <mxCell id="NYa0R-SMuXHiYhOAjpid-65" value="«Domain»&lt;br&gt;&lt;b&gt;User&lt;/b&gt;" style="html=1;whiteSpace=wrap;" parent="1" vertex="1">
          <mxGeometry x="-260" y="530" width="110" height="50" as="geometry" />
        </mxCell>
        <mxCell id="NYa0R-SMuXHiYhOAjpid-70" style="edgeStyle=orthogonalEdgeStyle;rounded=0;orthogonalLoop=1;jettySize=auto;html=1;exitX=0.5;exitY=0;exitDx=0;exitDy=0;entryX=0.5;entryY=1;entryDx=0;entryDy=0;endArrow=diamondThin;endFill=1;" parent="1" source="NYa0R-SMuXHiYhOAjpid-67" target="NYa0R-SMuXHiYhOAjpid-13" edge="1">
          <mxGeometry relative="1" as="geometry" />
        </mxCell>
        <mxCell id="NYa0R-SMuXHiYhOAjpid-67" value="«Domain»&lt;br&gt;&lt;b&gt;Vehicle&lt;/b&gt;" style="html=1;whiteSpace=wrap;" parent="1" vertex="1">
          <mxGeometry x="-90" y="530" width="110" height="50" as="geometry" />
        </mxCell>
        <mxCell id="NYa0R-SMuXHiYhOAjpid-72" style="edgeStyle=orthogonalEdgeStyle;rounded=0;orthogonalLoop=1;jettySize=auto;html=1;exitX=0;exitY=0.5;exitDx=0;exitDy=0;entryX=0.5;entryY=1;entryDx=0;entryDy=0;endArrow=diamondThin;endFill=1;" parent="1" source="NYa0R-SMuXHiYhOAjpid-71" target="NYa0R-SMuXHiYhOAjpid-62" edge="1">
          <mxGeometry relative="1" as="geometry" />
        </mxCell>
        <mxCell id="NYa0R-SMuXHiYhOAjpid-71" value="«domain»&lt;br&gt;&lt;b&gt;Roads&lt;/b&gt;" style="html=1;whiteSpace=wrap;" parent="1" vertex="1">
          <mxGeometry x="1511" y="510" width="110" height="50" as="geometry" />
        </mxCell>
        <mxCell id="NYa0R-SMuXHiYhOAjpid-75" style="edgeStyle=orthogonalEdgeStyle;rounded=0;orthogonalLoop=1;jettySize=auto;html=1;exitX=0;exitY=0.5;exitDx=0;exitDy=0;entryX=0.5;entryY=1;entryDx=0;entryDy=0;endArrow=diamondThin;endFill=1;" parent="1" source="NYa0R-SMuXHiYhOAjpid-74" target="NYa0R-SMuXHiYhOAjpid-62" edge="1">
          <mxGeometry relative="1" as="geometry" />
        </mxCell>
        <mxCell id="NYa0R-SMuXHiYhOAjpid-74" value="«domain»&lt;br&gt;&lt;b&gt;Peage&lt;/b&gt;" style="html=1;whiteSpace=wrap;" parent="1" vertex="1">
          <mxGeometry x="1511" y="600" width="110" height="50" as="geometry" />
        </mxCell>
        <mxCell id="NYa0R-SMuXHiYhOAjpid-94" style="edgeStyle=orthogonalEdgeStyle;rounded=0;orthogonalLoop=1;jettySize=auto;html=1;exitX=1;exitY=0.5;exitDx=0;exitDy=0;entryX=0.75;entryY=1;entryDx=0;entryDy=0;endArrow=diamondThin;endFill=1;" parent="1" source="NYa0R-SMuXHiYhOAjpid-76" target="NYa0R-SMuXHiYhOAjpid-17" edge="1">
          <mxGeometry relative="1" as="geometry" />
        </mxCell>
        <mxCell id="NYa0R-SMuXHiYhOAjpid-76" value="«domain»&lt;br&gt;&lt;b&gt;Traffic jams&lt;/b&gt;" style="html=1;whiteSpace=wrap;" parent="1" vertex="1">
          <mxGeometry x="811" y="480" width="110" height="50" as="geometry" />
        </mxCell>
        <mxCell id="NYa0R-SMuXHiYhOAjpid-95" style="edgeStyle=orthogonalEdgeStyle;rounded=0;orthogonalLoop=1;jettySize=auto;html=1;exitX=1;exitY=0.5;exitDx=0;exitDy=0;entryX=0.75;entryY=1;entryDx=0;entryDy=0;endArrow=diamondThin;endFill=1;" parent="1" source="NYa0R-SMuXHiYhOAjpid-77" target="NYa0R-SMuXHiYhOAjpid-17" edge="1">
          <mxGeometry relative="1" as="geometry" />
        </mxCell>
        <mxCell id="NYa0R-SMuXHiYhOAjpid-77" value="«domain»&lt;br&gt;&lt;b&gt;Accidents&lt;/b&gt;" style="html=1;whiteSpace=wrap;" parent="1" vertex="1">
          <mxGeometry x="811" y="550" width="110" height="50" as="geometry" />
        </mxCell>
        <mxCell id="NYa0R-SMuXHiYhOAjpid-97" style="edgeStyle=orthogonalEdgeStyle;rounded=0;orthogonalLoop=1;jettySize=auto;html=1;exitX=1;exitY=0.5;exitDx=0;exitDy=0;entryX=0.75;entryY=1;entryDx=0;entryDy=0;endArrow=diamondThin;endFill=1;" parent="1" source="NYa0R-SMuXHiYhOAjpid-78" target="NYa0R-SMuXHiYhOAjpid-17" edge="1">
          <mxGeometry relative="1" as="geometry" />
        </mxCell>
        <mxCell id="NYa0R-SMuXHiYhOAjpid-78" value="«domain»&lt;br&gt;&lt;b&gt;Policia&lt;/b&gt;" style="html=1;whiteSpace=wrap;" parent="1" vertex="1">
          <mxGeometry x="811" y="620" width="110" height="50" as="geometry" />
        </mxCell>
        <mxCell id="NYa0R-SMuXHiYhOAjpid-99" style="edgeStyle=orthogonalEdgeStyle;rounded=0;orthogonalLoop=1;jettySize=auto;html=1;exitX=1;exitY=0.5;exitDx=0;exitDy=0;entryX=0.75;entryY=1;entryDx=0;entryDy=0;endArrow=diamondThin;endFill=1;" parent="1" source="NYa0R-SMuXHiYhOAjpid-79" target="NYa0R-SMuXHiYhOAjpid-17" edge="1">
          <mxGeometry relative="1" as="geometry" />
        </mxCell>
        <mxCell id="NYa0R-SMuXHiYhOAjpid-79" value="«domain»&lt;br&gt;&lt;b&gt;Closed roads&lt;/b&gt;" style="html=1;whiteSpace=wrap;" parent="1" vertex="1">
          <mxGeometry x="811" y="760" width="110" height="50" as="geometry" />
        </mxCell>
        <mxCell id="NYa0R-SMuXHiYhOAjpid-98" style="edgeStyle=orthogonalEdgeStyle;rounded=0;orthogonalLoop=1;jettySize=auto;html=1;exitX=1;exitY=0.5;exitDx=0;exitDy=0;entryX=0.75;entryY=1;entryDx=0;entryDy=0;endArrow=diamondThin;endFill=1;" parent="1" source="NYa0R-SMuXHiYhOAjpid-80" target="NYa0R-SMuXHiYhOAjpid-17" edge="1">
          <mxGeometry relative="1" as="geometry" />
        </mxCell>
        <mxCell id="NYa0R-SMuXHiYhOAjpid-80" value="«domain»&lt;br&gt;&lt;b&gt;Storms&lt;/b&gt;" style="html=1;whiteSpace=wrap;" parent="1" vertex="1">
          <mxGeometry x="811" y="690" width="110" height="50" as="geometry" />
        </mxCell>
        <mxCell id="NYa0R-SMuXHiYhOAjpid-102" style="edgeStyle=orthogonalEdgeStyle;rounded=0;orthogonalLoop=1;jettySize=auto;html=1;exitX=1;exitY=0.5;exitDx=0;exitDy=0;entryX=0.75;entryY=1;entryDx=0;entryDy=0;endArrow=diamondThin;endFill=1;" parent="1" source="NYa0R-SMuXHiYhOAjpid-100" target="NYa0R-SMuXHiYhOAjpid-15" edge="1">
          <mxGeometry relative="1" as="geometry" />
        </mxCell>
        <mxCell id="NYa0R-SMuXHiYhOAjpid-100" value="«Form»&lt;br&gt;&lt;b&gt;Report&lt;/b&gt;" style="html=1;whiteSpace=wrap;" parent="1" vertex="1">
          <mxGeometry x="450" y="610" width="110" height="50" as="geometry" />
        </mxCell>
        <mxCell id="NYa0R-SMuXHiYhOAjpid-106" style="edgeStyle=orthogonalEdgeStyle;rounded=0;orthogonalLoop=1;jettySize=auto;html=1;exitX=0.5;exitY=0;exitDx=0;exitDy=0;entryX=0.5;entryY=1;entryDx=0;entryDy=0;endArrow=diamondThin;endFill=1;" parent="1" source="NYa0R-SMuXHiYhOAjpid-104" target="NYa0R-SMuXHiYhOAjpid-25" edge="1">
          <mxGeometry relative="1" as="geometry" />
        </mxCell>
        <mxCell id="NYa0R-SMuXHiYhOAjpid-104" value="«interface»&lt;br&gt;&lt;b&gt;Seacrh POI&lt;/b&gt;" style="html=1;whiteSpace=wrap;" parent="1" vertex="1">
          <mxGeometry x="60" y="530" width="110" height="50" as="geometry" />
        </mxCell>
        <mxCell id="NYa0R-SMuXHiYhOAjpid-107" style="edgeStyle=orthogonalEdgeStyle;rounded=0;orthogonalLoop=1;jettySize=auto;html=1;exitX=0.5;exitY=0;exitDx=0;exitDy=0;entryX=0.5;entryY=1;entryDx=0;entryDy=0;" parent="1" source="NYa0R-SMuXHiYhOAjpid-105" target="NYa0R-SMuXHiYhOAjpid-25" edge="1">
          <mxGeometry relative="1" as="geometry" />
        </mxCell>
        <mxCell id="NYa0R-SMuXHiYhOAjpid-105" value="«interface»&lt;br&gt;&lt;b&gt;Filter POI&lt;/b&gt;" style="html=1;whiteSpace=wrap;" parent="1" vertex="1">
          <mxGeometry x="220" y="530" width="110" height="50" as="geometry" />
        </mxCell>
        <mxCell id="NYa0R-SMuXHiYhOAjpid-111" style="edgeStyle=orthogonalEdgeStyle;rounded=0;orthogonalLoop=1;jettySize=auto;html=1;exitX=0.5;exitY=0;exitDx=0;exitDy=0;entryX=0.5;entryY=1;entryDx=0;entryDy=0;endArrow=diamondThin;endFill=1;" parent="1" source="NYa0R-SMuXHiYhOAjpid-109" target="NYa0R-SMuXHiYhOAjpid-10" edge="1">
          <mxGeometry relative="1" as="geometry" />
        </mxCell>
        <mxCell id="NYa0R-SMuXHiYhOAjpid-109" value="«Form»&lt;br&gt;&lt;b&gt;User Form&lt;/b&gt;" style="html=1;whiteSpace=wrap;" parent="1" vertex="1">
          <mxGeometry x="-618.5" y="700" width="110" height="50" as="geometry" />
        </mxCell>
        <mxCell id="NYa0R-SMuXHiYhOAjpid-112" style="edgeStyle=orthogonalEdgeStyle;rounded=0;orthogonalLoop=1;jettySize=auto;html=1;exitX=0.5;exitY=0;exitDx=0;exitDy=0;entryX=0.5;entryY=1;entryDx=0;entryDy=0;endArrow=diamondThin;endFill=1;" parent="1" source="NYa0R-SMuXHiYhOAjpid-110" target="NYa0R-SMuXHiYhOAjpid-11" edge="1">
          <mxGeometry relative="1" as="geometry" />
        </mxCell>
        <mxCell id="NYa0R-SMuXHiYhOAjpid-110" value="«Form»&lt;br&gt;&lt;b&gt;Vehicle Form&lt;/b&gt;" style="html=1;whiteSpace=wrap;" parent="1" vertex="1">
          <mxGeometry x="-415.5" y="700" width="110" height="50" as="geometry" />
        </mxCell>
        <mxCell id="gWUYYwlUmVVh68GKD5Im-2" style="edgeStyle=orthogonalEdgeStyle;rounded=0;orthogonalLoop=1;jettySize=auto;html=1;exitX=0.5;exitY=0;exitDx=0;exitDy=0;entryX=0.5;entryY=1;entryDx=0;entryDy=0;endArrow=diamondThin;endFill=1;" parent="1" source="gWUYYwlUmVVh68GKD5Im-1" target="NYa0R-SMuXHiYhOAjpid-3" edge="1">
          <mxGeometry relative="1" as="geometry" />
        </mxCell>
        <mxCell id="gWUYYwlUmVVh68GKD5Im-1" value="«control»&lt;br&gt;&lt;b&gt;Ctrl User Management&lt;/b&gt;" style="html=1;whiteSpace=wrap;" parent="1" vertex="1">
          <mxGeometry x="-810" y="390" width="110" height="50" as="geometry" />
        </mxCell>
        <mxCell id="gWUYYwlUmVVh68GKD5Im-4" style="edgeStyle=orthogonalEdgeStyle;rounded=0;orthogonalLoop=1;jettySize=auto;html=1;exitX=0.5;exitY=0;exitDx=0;exitDy=0;entryX=0.5;entryY=1;entryDx=0;entryDy=0;endArrow=diamondThin;endFill=1;" parent="1" source="gWUYYwlUmVVh68GKD5Im-3" target="NYa0R-SMuXHiYhOAjpid-24" edge="1">
          <mxGeometry relative="1" as="geometry" />
        </mxCell>
        <mxCell id="gWUYYwlUmVVh68GKD5Im-3" value="«control»&lt;br&gt;&lt;b&gt;Ctrl POI&lt;/b&gt;" style="html=1;whiteSpace=wrap;" parent="1" vertex="1">
          <mxGeometry x="-30" y="390" width="110" height="50" as="geometry" />
        </mxCell>
        <mxCell id="gWUYYwlUmVVh68GKD5Im-6" style="edgeStyle=orthogonalEdgeStyle;rounded=0;orthogonalLoop=1;jettySize=auto;html=1;exitX=0.5;exitY=0;exitDx=0;exitDy=0;entryX=0.5;entryY=1;entryDx=0;entryDy=0;endArrow=diamondThin;endFill=1;" parent="1" source="gWUYYwlUmVVh68GKD5Im-5" target="NYa0R-SMuXHiYhOAjpid-16" edge="1">
          <mxGeometry relative="1" as="geometry" />
        </mxCell>
        <mxCell id="gWUYYwlUmVVh68GKD5Im-5" value="«control»&lt;br&gt;&lt;b&gt;Ctrl Traffic Monotoring &amp;amp; Alerts&lt;/b&gt;" style="html=1;whiteSpace=wrap;" parent="1" vertex="1">
          <mxGeometry x="620" y="390" width="120" height="50" as="geometry" />
        </mxCell>
        <mxCell id="gWUYYwlUmVVh68GKD5Im-9" style="edgeStyle=orthogonalEdgeStyle;rounded=0;orthogonalLoop=1;jettySize=auto;html=1;exitX=0.5;exitY=0;exitDx=0;exitDy=0;entryX=0.5;entryY=1;entryDx=0;entryDy=0;endArrow=diamondThin;endFill=1;" parent="1" source="gWUYYwlUmVVh68GKD5Im-7" target="NYa0R-SMuXHiYhOAjpid-18" edge="1">
          <mxGeometry relative="1" as="geometry" />
        </mxCell>
        <mxCell id="gWUYYwlUmVVh68GKD5Im-7" value="«control»&lt;br&gt;&lt;b&gt;Ctrl Navigation&lt;/b&gt;" style="html=1;whiteSpace=wrap;" parent="1" vertex="1">
          <mxGeometry x="1030" y="390" width="110" height="50" as="geometry" />
        </mxCell>
        <mxCell id="gWUYYwlUmVVh68GKD5Im-11" style="edgeStyle=orthogonalEdgeStyle;rounded=0;orthogonalLoop=1;jettySize=auto;html=1;exitX=0.5;exitY=0;exitDx=0;exitDy=0;entryX=0.5;entryY=1;entryDx=0;entryDy=0;endArrow=diamondThin;endFill=1;" parent="1" source="gWUYYwlUmVVh68GKD5Im-10" target="NYa0R-SMuXHiYhOAjpid-26" edge="1">
          <mxGeometry relative="1" as="geometry" />
        </mxCell>
        <mxCell id="gWUYYwlUmVVh68GKD5Im-10" value="&lt;div&gt;&amp;lt;&amp;lt;control&amp;gt;&amp;gt;&lt;/div&gt;Ctril Third-Party Integration" style="html=1;whiteSpace=wrap;" parent="1" vertex="1">
          <mxGeometry x="2010" y="390" width="110" height="50" as="geometry" />
        </mxCell>
        <mxCell id="8JqxV0b_A7vU7f-LkTIg-2" style="edgeStyle=orthogonalEdgeStyle;rounded=0;orthogonalLoop=1;jettySize=auto;html=1;exitX=0;exitY=0.5;exitDx=0;exitDy=0;entryX=0.5;entryY=1;entryDx=0;entryDy=0;endArrow=diamondThin;endFill=1;" parent="1" source="8JqxV0b_A7vU7f-LkTIg-1" target="NYa0R-SMuXHiYhOAjpid-62" edge="1">
          <mxGeometry relative="1" as="geometry" />
        </mxCell>
        <mxCell id="8JqxV0b_A7vU7f-LkTIg-1" value="«domain»&lt;br&gt;&lt;b&gt;POI&lt;/b&gt;" style="html=1;whiteSpace=wrap;" parent="1" vertex="1">
          <mxGeometry x="1511" y="690" width="110" height="50" as="geometry" />
        </mxCell>
        <mxCell id="8JqxV0b_A7vU7f-LkTIg-4" style="edgeStyle=orthogonalEdgeStyle;rounded=0;orthogonalLoop=1;jettySize=auto;html=1;exitX=0.5;exitY=0;exitDx=0;exitDy=0;entryX=0.5;entryY=1;entryDx=0;entryDy=0;endArrow=diamondThin;endFill=1;" parent="1" source="8JqxV0b_A7vU7f-LkTIg-3" target="NYa0R-SMuXHiYhOAjpid-3" edge="1">
          <mxGeometry relative="1" as="geometry" />
        </mxCell>
        <mxCell id="8JqxV0b_A7vU7f-LkTIg-3" value="«control»&lt;br&gt;&lt;b&gt;IntUser Management&lt;/b&gt;" style="html=1;whiteSpace=wrap;" parent="1" vertex="1">
          <mxGeometry x="-517" y="390" width="110" height="50" as="geometry" />
        </mxCell>
        <mxCell id="8JqxV0b_A7vU7f-LkTIg-10" style="edgeStyle=orthogonalEdgeStyle;rounded=0;orthogonalLoop=1;jettySize=auto;html=1;exitX=0.5;exitY=0;exitDx=0;exitDy=0;entryX=0.5;entryY=1;entryDx=0;entryDy=0;endArrow=diamondThin;endFill=1;" parent="1" source="8JqxV0b_A7vU7f-LkTIg-9" target="NYa0R-SMuXHiYhOAjpid-16" edge="1">
          <mxGeometry relative="1" as="geometry" />
        </mxCell>
        <mxCell id="8JqxV0b_A7vU7f-LkTIg-9" value="«control»&lt;br&gt;&lt;b&gt;Int Traffic Monotoring &amp;amp; Alerts&lt;/b&gt;" style="html=1;whiteSpace=wrap;" parent="1" vertex="1">
          <mxGeometry x="400" y="390" width="120" height="50" as="geometry" />
        </mxCell>
        <mxCell id="8JqxV0b_A7vU7f-LkTIg-15" style="edgeStyle=orthogonalEdgeStyle;rounded=0;orthogonalLoop=1;jettySize=auto;html=1;exitX=0.5;exitY=0;exitDx=0;exitDy=0;entryX=0.5;entryY=1;entryDx=0;entryDy=0;endArrow=diamondThin;endFill=1;" parent="1" source="8JqxV0b_A7vU7f-LkTIg-14" target="NYa0R-SMuXHiYhOAjpid-18" edge="1">
          <mxGeometry relative="1" as="geometry" />
        </mxCell>
        <mxCell id="8JqxV0b_A7vU7f-LkTIg-14" value="«control»&lt;br&gt;&lt;b&gt;Int Navigation&lt;/b&gt;" style="html=1;whiteSpace=wrap;" parent="1" vertex="1">
          <mxGeometry x="1220" y="390" width="110" height="50" as="geometry" />
        </mxCell>
        <mxCell id="8JqxV0b_A7vU7f-LkTIg-18" style="edgeStyle=orthogonalEdgeStyle;rounded=0;orthogonalLoop=1;jettySize=auto;html=1;exitX=0.5;exitY=0;exitDx=0;exitDy=0;entryX=0.5;entryY=1;entryDx=0;entryDy=0;endArrow=diamondThin;endFill=1;" parent="1" source="8JqxV0b_A7vU7f-LkTIg-17" target="NYa0R-SMuXHiYhOAjpid-26" edge="1">
          <mxGeometry relative="1" as="geometry" />
        </mxCell>
        <mxCell id="8JqxV0b_A7vU7f-LkTIg-17" value="&lt;div&gt;&amp;lt;&amp;lt;control&amp;gt;&amp;gt;&lt;/div&gt;Int Third-Party Integration" style="html=1;whiteSpace=wrap;" parent="1" vertex="1">
          <mxGeometry x="1790" y="390" width="110" height="50" as="geometry" />
        </mxCell>
        <mxCell id="Tfdqh4tfgdYDXVl4OQam-1" value="&lt;b&gt;bdd &lt;/b&gt;Development view" style="shape=umlFrame;whiteSpace=wrap;html=1;pointerEvents=0;width=187;height=30;" vertex="1" parent="1">
          <mxGeometry x="-817" width="3107" height="900" as="geometry" />
        </mxCell>
      </root>
    </mxGraphModel>
  </diagram>
</mxfile>
